Advent Pro-Regular ThinMike.ufo
<glyph name="percent" format="1">
  <advance width="664"/>
  <unicode hex="0025"/>
  <outline>
    <contour>
      <point x="610" y="727" type="line"/>
      <point x="595" y="740" type="line"/>
      <point x="50" y="17" type="line"/>
      <point x="63" y="1" type="line"/>
    </contour>
    <contour>
      <point x="568" y="-13"/>
      <point x="635" y="53"/>
      <point x="635" y="133" type="curve" smooth="yes"/>
      <point x="635" y="212"/>
      <point x="568" y="279"/>
      <point x="489" y="279" type="curve" smooth="yes"/>
      <point x="409" y="279"/>
      <point x="343" y="212"/>
      <point x="343" y="133" type="curve" smooth="yes"/>
      <point x="343" y="55"/>
      <point x="409" y="-13"/>
      <point x="489" y="-13" type="curve" smooth="yes"/>
    </contour>
    <contour>
      <point x="418" y="7"/>
      <point x="363" y="65"/>
      <point x="363" y="133" type="curve" smooth="yes"/>
      <point x="363" y="201"/>
      <point x="418" y="260"/>
      <point x="489" y="260" type="curve" smooth="yes"/>
      <point x="560" y="260"/>
      <point x="614" y="201"/>
      <point x="614" y="133" type="curve" smooth="yes"/>
      <point x="614" y="65"/>
      <point x="560" y="7"/>
      <point x="489" y="7" type="curve" smooth="yes"/>
    </contour>
    <contour>
      <point x="257" y="437"/>
      <point x="324" y="503"/>
      <point x="324" y="583" type="curve" smooth="yes"/>
      <point x="324" y="662"/>
      <point x="257" y="729"/>
      <point x="178" y="729" type="curve" smooth="yes"/>
      <point x="98" y="729"/>
      <point x="32" y="662"/>
      <point x="32" y="583" type="curve" smooth="yes"/>
      <point x="32" y="505"/>
      <point x="98" y="437"/>
      <point x="178" y="437" type="curve" smooth="yes"/>
    </contour>
    <contour>
      <point x="107" y="457"/>
      <point x="52" y="515"/>
      <point x="52" y="583" type="curve" smooth="yes"/>
      <point x="52" y="651"/>
      <point x="107" y="710"/>
      <point x="178" y="710" type="curve" smooth="yes"/>
      <point x="249" y="710"/>
      <point x="303" y="651"/>
      <point x="303" y="583" type="curve" smooth="yes"/>
      <point x="303" y="515"/>
      <point x="249" y="457"/>
      <point x="178" y="457" type="curve" smooth="yes"/>
    </contour>
  </outline>
</glyph>
<glyph name="quotesingle" format="1">
  <advance width="164"/>
  <unicode hex="0027"/>
  <outline>
    <contour>
      <point x="69" y="542" type="line"/>
      <point x="74" y="660" type="line" smooth="yes"/>
      <point x="75" y="679"/>
      <point x="76" y="702"/>
      <point x="76" y="708" type="curve" smooth="yes"/>
      <point x="76" y="720"/>
      <point x="70" y="725"/>
      <point x="61" y="725" type="curve" smooth="yes"/>
      <point x="52" y="725"/>
      <point x="46" y="720"/>
      <point x="46" y="708" type="curve" smooth="yes"/>
      <point x="46" y="702"/>
      <point x="47" y="679"/>
      <point x="48" y="660" type="curve" smooth="yes"/>
      <point x="52" y="542" type="line"/>
    </contour>
  </outline>
</glyph>
<glyph name="period" format="1">
  <advance width="131"/>
  <unicode hex="002E"/>
  <outline>
    <contour>
      <point x="53" y="0"/>
      <point x="60" y="7"/>
      <point x="60" y="15" type="curve" smooth="yes"/>
      <point x="60" y="23"/>
      <point x="53" y="30"/>
      <point x="45" y="30" type="curve" smooth="yes"/>
      <point x="37" y="30"/>
      <point x="30" y="23"/>
      <point x="30" y="15" type="curve" smooth="yes"/>
      <point x="30" y="7"/>
      <point x="37" y="0"/>
      <point x="45" y="0" type="curve" smooth="yes"/>
    </contour>
  </outline>
</glyph>
<glyph name="two" format="1">
  <advance width="413"/>
  <unicode hex="0032"/>
  <outline>
    <contour>
      <point x="381" y="0" type="line"/>
      <point x="381" y="20" type="line"/>
      <point x="53" y="20" type="line"/>
      <point x="335" y="413" type="line" smooth="yes"/>
      <point x="368" y="459"/>
      <point x="382" y="506"/>
      <point x="382" y="551" type="curve" smooth="yes"/>
      <point x="382" y="638"/>
      <point x="309" y="710"/>
      <point x="221" y="710" type="curve" smooth="yes"/>
      <point x="130" y="710"/>
      <point x="71" y="670"/>
      <point x="43" y="590" type="curve"/>
      <point x="61" y="583" type="line"/>
      <point x="80" y="644"/>
      <point x="130" y="691"/>
      <point x="215" y="691" type="curve" smooth="yes"/>
      <point x="294" y="691"/>
      <point x="363" y="637"/>
      <point x="363" y="551" type="curve" smooth="yes"/>
      <point x="363" y="518"/>
      <point x="355" y="472"/>
      <point x="321" y="424" type="curve" smooth="yes"/>
      <point x="30" y="20" type="line"/>
      <point x="30" y="0" type="line"/>
    </contour>
  </outline>
</glyph>
<glyph name="five" format="1">
  <advance width="451"/>
  <unicode hex="0035"/>
  <outline>
    <contour>
      <point x="344" y="-12"/>
      <point x="420" y="94"/>
      <point x="420" y="201" type="curve" smooth="yes"/>
      <point x="420" y="307"/>
      <point x="350" y="413"/>
      <point x="207" y="413" type="curve" smooth="yes"/>
      <point x="88" y="413" type="line"/>
      <point x="117" y="680" type="line"/>
      <point x="364" y="680" type="line"/>
      <point x="364" y="700" type="line"/>
      <point x="99" y="700" type="line"/>
      <point x="67" y="394" type="line"/>
      <point x="209" y="394" type="line" smooth="yes"/>
      <point x="334" y="394"/>
      <point x="401" y="302"/>
      <point x="401" y="200" type="curve" smooth="yes"/>
      <point x="401" y="98"/>
      <point x="326" y="7"/>
      <point x="213" y="7" type="curve" smooth="yes"/>
      <point x="143" y="7"/>
      <point x="77" y="41"/>
      <point x="46" y="93" type="curve"/>
      <point x="30" y="83" type="line"/>
      <point x="69" y="24"/>
      <point x="135" y="-12"/>
      <point x="213" y="-12" type="curve" smooth="yes"/>
    </contour>
  </outline>
</glyph>
<glyph name="six" format="1">
  <advance width="486"/>
  <unicode hex="0036"/>
  <outline>
    <contour>
      <point x="361" y="-12"/>
      <point x="455" y="74"/>
      <point x="455" y="201" type="curve" smooth="yes"/>
      <point x="455" y="326"/>
      <point x="364" y="413"/>
      <point x="242" y="413" type="curve" smooth="yes"/>
      <point x="165" y="413"/>
      <point x="89" y="376"/>
      <point x="49" y="287" type="curve"/>
      <point x="49" y="461" type="line" smooth="yes"/>
      <point x="49" y="593"/>
      <point x="134" y="681"/>
      <point x="274" y="681" type="curve" smooth="yes"/>
      <point x="309" y="681" type="line"/>
      <point x="309" y="700" type="line"/>
      <point x="274" y="700" type="line" smooth="yes"/>
      <point x="124" y="700"/>
      <point x="30" y="605"/>
      <point x="30" y="461" type="curve" smooth="yes"/>
      <point x="30" y="201" type="line" smooth="yes"/>
      <point x="30" y="72"/>
      <point x="125" y="-12"/>
      <point x="242" y="-12" type="curve" smooth="yes"/>
    </contour>
    <contour>
      <point x="146" y="8"/>
      <point x="49" y="73"/>
      <point x="49" y="201" type="curve" smooth="yes"/>
      <point x="54" y="319"/>
      <point x="131" y="393"/>
      <point x="242" y="393" type="curve" smooth="yes"/>
      <point x="339" y="393"/>
      <point x="436" y="328"/>
      <point x="436" y="201" type="curve" smooth="yes"/>
      <point x="436" y="73"/>
      <point x="339" y="8"/>
      <point x="242" y="8" type="curve" smooth="yes"/>
    </contour>
  </outline>
</glyph>
<glyph name="question" format="1">
  <advance width="416"/>
  <unicode hex="003F"/>
  <outline>
    <contour>
      <point x="205" y="119" type="line"/>
      <point x="205" y="185" type="line" smooth="yes"/>
      <point x="205" y="242"/>
      <point x="220" y="284"/>
      <point x="266" y="329" type="curve" smooth="yes"/>
      <point x="284" y="348"/>
      <point x="301" y="365"/>
      <point x="317" y="383" type="curve" smooth="yes"/>
      <point x="361" y="433"/>
      <point x="382" y="476"/>
      <point x="382" y="532" type="curve" smooth="yes"/>
      <point x="382" y="636"/>
      <point x="311" y="709"/>
      <point x="204" y="709" type="curve" smooth="yes"/>
      <point x="94" y="709"/>
      <point x="30" y="632"/>
      <point x="30" y="532" type="curve"/>
      <point x="49" y="532" type="line"/>
      <point x="49" y="626"/>
      <point x="110" y="690"/>
      <point x="204" y="690" type="curve" smooth="yes"/>
      <point x="297" y="690"/>
      <point x="363" y="625"/>
      <point x="363" y="532" type="curve" smooth="yes"/>
      <point x="363" y="475"/>
      <point x="341" y="439"/>
      <point x="305" y="398" type="curve" smooth="yes"/>
      <point x="290" y="382"/>
      <point x="273" y="365"/>
      <point x="254" y="344" type="curve" smooth="yes"/>
      <point x="200" y="287"/>
      <point x="186" y="245"/>
      <point x="186" y="185" type="curve" smooth="yes"/>
      <point x="186" y="119" type="line"/>
    </contour>
    <contour>
      <point x="204" y="0"/>
      <point x="211" y="7"/>
      <point x="211" y="15" type="curve" smooth="yes"/>
      <point x="211" y="23"/>
      <point x="204" y="30"/>
      <point x="196" y="30" type="curve" smooth="yes"/>
      <point x="188" y="30"/>
      <point x="181" y="23"/>
      <point x="181" y="15" type="curve" smooth="yes"/>
      <point x="181" y="7"/>
      <point x="188" y="0"/>
      <point x="196" y="0" type="curve" smooth="yes"/>
    </contour>
  </outline>
</glyph>
<glyph name="at" format="1">
  <advance width="720"/>
  <unicode hex="0040"/>
  <outline>
    <contour>
      <point x="496" y="-66"/>
      <point x="656" y="8"/>
      <point x="656" y="173" type="curve" smooth="yes"/>
      <point x="656" y="403" type="line" smooth="yes"/>
      <point x="656" y="440"/>
      <point x="667" y="463"/>
      <point x="689" y="473" type="curve"/>
      <point x="681" y="490" type="line"/>
      <point x="642" y="463"/>
      <point x="637" y="444"/>
      <point x="637" y="372" type="curve" smooth="yes"/>
      <point x="637" y="164" type="line" smooth="yes"/>
      <point x="637" y="43"/>
      <point x="514" y="-48"/>
      <point x="326" y="-48" type="curve" smooth="yes"/>
      <point x="158" y="-48"/>
      <point x="49" y="47"/>
      <point x="49" y="190" type="curve" smooth="yes"/>
      <point x="49" y="342" type="line" smooth="yes"/>
      <point x="49" y="486"/>
      <point x="161" y="561"/>
      <point x="313" y="561" type="curve" smooth="yes"/>
      <point x="434" y="561"/>
      <point x="520" y="515"/>
      <point x="518" y="403" type="curve"/>
      <point x="434" y="441"/>
      <point x="364" y="460"/>
      <point x="307" y="460" type="curve" smooth="yes"/>
      <point x="212" y="460"/>
      <point x="153" y="407"/>
      <point x="153" y="305" type="curve" smooth="yes"/>
      <point x="153" y="204" type="line" smooth="yes"/>
      <point x="153" y="104"/>
      <point x="218" y="54"/>
      <point x="326" y="54" type="curve" smooth="yes"/>
      <point x="377" y="54"/>
      <point x="447" y="66"/>
      <point x="538" y="91" type="curve"/>
      <point x="538" y="375" type="line"/>
      <point x="575" y="359" type="line"/>
      <point x="575" y="380" type="line"/>
      <point x="538" y="396" type="line"/>
      <point x="538" y="520"/>
      <point x="455" y="580"/>
      <point x="315" y="580" type="curve" smooth="yes"/>
      <point x="153" y="580"/>
      <point x="30" y="502"/>
      <point x="30" y="339" type="curve" smooth="yes"/>
      <point x="30" y="192" type="line" smooth="yes"/>
      <point x="30" y="24"/>
      <point x="162" y="-66"/>
      <point x="324" y="-66" type="curve" smooth="yes"/>
    </contour>
    <contour>
      <point x="231" y="74"/>
      <point x="172" y="114"/>
      <point x="172" y="207" type="curve" smooth="yes"/>
      <point x="172" y="302" type="line" smooth="yes"/>
      <point x="172" y="388"/>
      <point x="214" y="440"/>
      <point x="308" y="440" type="curve" smooth="yes"/>
      <point x="374" y="440"/>
      <point x="436" y="420"/>
      <point x="518" y="383" type="curve"/>
      <point x="518" y="108" type="line"/>
      <point x="449" y="85"/>
      <point x="385" y="74"/>
      <point x="327" y="74" type="curve" smooth="yes"/>
    </contour>
  </outline>
</glyph>
<glyph name="D" format="1">
  <advance width="576"/>
  <unicode hex="0044"/>
  <outline>
    <contour>
      <point x="286" y="0" type="line" smooth="yes"/>
      <point x="427" y="0"/>
      <point x="498" y="67"/>
      <point x="498" y="200" type="curve" smooth="yes"/>
      <point x="498" y="474" type="line" smooth="yes"/>
      <point x="498" y="611"/>
      <point x="417" y="701"/>
      <point x="266" y="701" type="curve" smooth="yes"/>
      <point x="78" y="701" type="line"/>
      <point x="78" y="0" type="line"/>
    </contour>
    <contour>
      <point x="97" y="680" type="line"/>
      <point x="276" y="680" type="line" smooth="yes"/>
      <point x="391" y="680"/>
      <point x="479" y="611"/>
      <point x="479" y="468" type="curve" smooth="yes"/>
      <point x="479" y="214" type="line" smooth="yes"/>
      <point x="479" y="75"/>
      <point x="413" y="20"/>
      <point x="276" y="20" type="curve" smooth="yes"/>
      <point x="97" y="20" type="line"/>
    </contour>
    <contour>
      <point x="134" y="354" type="move" name="center"/>
    </contour>
    <contour>
      <point x="280" y="0" type="move" name="bottom"/>
    </contour>
    <contour>
      <point x="280" y="694" type="move" name="top"/>
    </contour>
  </outline>
</glyph>
<glyph name="E" format="1">
  <advance width="465"/>
  <unicode hex="0045"/>
  <outline>
    <contour>
      <point x="410" y="0" type="line"/>
      <point x="410" y="19" type="line"/>
      <point x="97" y="19" type="line"/>
      <point x="97" y="394" type="line"/>
      <point x="318" y="394" type="line"/>
      <point x="325" y="413" type="line"/>
      <point x="97" y="413" type="line"/>
      <point x="97" y="681" type="line"/>
      <point x="412" y="681" type="line"/>
      <point x="412" y="700" type="line"/>
      <point x="78" y="700" type="line"/>
      <point x="78" y="0" type="line"/>
    </contour>
    <contour>
      <point x="419" y="10" type="move" name="ogonek"/>
    </contour>
    <contour>
      <point x="245" y="694" type="move" name="top"/>
    </contour>
    <contour>
      <point x="35" y="694" type="move" name="topleft"/>
    </contour>
    <contour>
      <point x="249" y="0" type="move" name="bottom"/>
    </contour>
  </outline>
</glyph>
<glyph name="H" format="1">
  <advance width="588"/>
  <unicode hex="0048"/>
  <outline>
    <contour>
      <point x="97" y="0" type="line"/>
      <point x="97" y="394" type="line"/>
      <point x="489" y="394" type="line"/>
      <point x="489" y="0" type="line"/>
      <point x="508" y="0" type="line"/>
      <point x="508" y="700" type="line"/>
      <point x="489" y="700" type="line"/>
      <point x="489" y="413" type="line"/>
      <point x="97" y="413" type="line"/>
      <point x="97" y="700" type="line"/>
      <point x="78" y="700" type="line"/>
      <point x="78" y="0" type="line"/>
    </contour>
    <contour>
      <point x="294" y="0" type="move" name="bottom"/>
    </contour>
    <contour>
      <point x="294" y="694" type="move" name="top"/>
    </contour>
    <contour>
      <point x="35" y="694" type="move" name="topleft"/>
    </contour>
    <contour>
      <point x="294" y="530" type="move" name="center"/>
    </contour>
  </outline>
</glyph>
<glyph name="J" format="1">
  <advance width="177"/>
  <unicode hex="004A"/>
  <outline>
    <contour>
      <point x="84" y="-24"/>
      <point x="113" y="22"/>
      <point x="113" y="122" type="curve" smooth="yes"/>
      <point x="113" y="700" type="line"/>
      <point x="11" y="700" type="line"/>
      <point x="11" y="681" type="line"/>
      <point x="95" y="679" type="line"/>
      <point x="95" y="118" type="line" smooth="yes"/>
      <point x="95" y="35"/>
      <point x="64" y="-10"/>
      <point x="3" y="-19" type="curve"/>
      <point x="9" y="-37" type="line"/>
    </contour>
    <contour>
      <point x="104" y="694" type="move" name="top"/>
    </contour>
    <contour>
      <point x="65" y="0" type="move" name="bottom"/>
    </contour>
  </outline>
</glyph>
<glyph name="L" format="1">
  <advance width="440"/>
  <unicode hex="004C"/>
  <outline>
    <contour>
      <point x="439" y="0" type="line"/>
      <point x="439" y="20" type="line"/>
      <point x="97" y="20" type="line"/>
      <point x="97" y="700" type="line"/>
      <point x="78" y="700" type="line"/>
      <point x="78" y="0" type="line"/>
    </contour>
    <contour>
      <point x="263" y="0" type="move" name="bottom"/>
    </contour>
    <contour>
      <point x="88" y="694" type="move" name="top"/>
    </contour>
    <contour>
      <point x="315" y="694" type="move" name="topright"/>
    </contour>
    <contour>
      <point x="107" y="415" type="move" name="center"/>
    </contour>
  </outline>
</glyph>
<glyph name="N" format="1">
  <advance width="653"/>
  <unicode hex="004E"/>
  <outline>
    <contour>
      <point x="97" y="0" type="line"/>
      <point x="97" y="670" type="line"/>
      <point x="554" y="0" type="line"/>
      <point x="573" y="0" type="line"/>
      <point x="573" y="700" type="line"/>
      <point x="554" y="700" type="line"/>
      <point x="554" y="32" type="line"/>
      <point x="97" y="700" type="line"/>
      <point x="78" y="700" type="line"/>
      <point x="78" y="0" type="line"/>
    </contour>
    <contour>
      <point x="326" y="694" type="move" name="top"/>
    </contour>
    <contour>
      <point x="326" y="0" type="move" name="bottom"/>
    </contour>
  </outline>
</glyph>
<glyph name="T" format="1">
  <advance width="402"/>
  <unicode hex="0054"/>
  <outline>
    <contour>
      <point x="208" y="0" type="line"/>
      <point x="208" y="680" type="line"/>
      <point x="402" y="680" type="line"/>
      <point x="402" y="700" type="line"/>
      <point x="0" y="700" type="line"/>
      <point x="0" y="680" type="line"/>
      <point x="189" y="680" type="line"/>
      <point x="190" y="0" type="line"/>
    </contour>
    <contour>
      <point x="200" y="370" type="move" name="center"/>
    </contour>
    <contour>
      <point x="200" y="0" type="move" name="bottom"/>
    </contour>
    <contour>
      <point x="200" y="694" type="move" name="top"/>
    </contour>
  </outline>
</glyph>
<glyph name="c" format="1">
  <advance width="383"/>
  <unicode hex="0063"/>
  <outline>
    <contour>
      <point x="277" y="-11"/>
      <point x="315" y="-5"/>
      <point x="358" y="6" type="curve"/>
      <point x="353" y="25" type="line"/>
      <point x="312" y="13"/>
      <point x="272" y="7"/>
      <point x="235" y="7" type="curve" smooth="yes"/>
      <point x="131" y="7"/>
      <point x="53" y="55"/>
      <point x="55" y="169" type="curve" smooth="yes"/>
      <point x="55" y="314" type="line" smooth="yes"/>
      <point x="55" y="418"/>
      <point x="113" y="490"/>
      <point x="223" y="490" type="curve" smooth="yes"/>
      <point x="266" y="490"/>
      <point x="308" y="479"/>
      <point x="349" y="458" type="curve"/>
      <point x="356" y="478" type="line"/>
      <point x="311" y="499"/>
      <point x="266" y="510"/>
      <point x="222" y="510" type="curve" smooth="yes"/>
      <point x="101" y="510"/>
      <point x="36" y="430"/>
      <point x="36" y="308" type="curve" smooth="yes"/>
      <point x="36" y="180" type="line" smooth="yes"/>
      <point x="36" y="51"/>
      <point x="102" y="-11"/>
      <point x="242" y="-11" type="curve" smooth="yes"/>
    </contour>
    <contour>
      <point x="221" y="501" type="move" name="top"/>
    </contour>
    <contour>
      <point x="221" y="0" type="move" name="bottom"/>
    </contour>
  </outline>
</glyph>
<glyph name="d" format="1">
  <advance width="462"/>
  <unicode hex="0064"/>
  <outline>
    <contour>
      <point x="319" y="-12"/>
      <point x="369" y="-8"/>
      <point x="423" y="0" type="curve"/>
      <point x="423" y="700" type="line"/>
      <point x="404" y="700" type="line"/>
      <point x="404" y="477" type="line"/>
      <point x="358" y="499"/>
      <point x="309" y="510"/>
      <point x="249" y="510" type="curve" smooth="yes"/>
      <point x="136" y="510"/>
      <point x="54" y="463"/>
      <point x="54" y="340" type="curve" smooth="yes"/>
      <point x="54" y="157" type="line" smooth="yes"/>
      <point x="54" y="41"/>
      <point x="135" y="-12"/>
      <point x="279" y="-12" type="curve" smooth="yes"/>
    </contour>
    <contour>
      <point x="142" y="7"/>
      <point x="73" y="57"/>
      <point x="73" y="156" type="curve" smooth="yes"/>
      <point x="73" y="343" type="line" smooth="yes"/>
      <point x="73" y="440"/>
      <point x="134" y="491"/>
      <point x="250" y="491" type="curve" smooth="yes"/>
      <point x="305" y="491"/>
      <point x="359" y="480"/>
      <point x="404" y="457" type="curve"/>
      <point x="404" y="18" type="line"/>
      <point x="361" y="11"/>
      <point x="320" y="7"/>
      <point x="281" y="7" type="curve" smooth="yes"/>
    </contour>
    <contour>
      <point x="267" y="0" type="move" name="bottom"/>
    </contour>
    <contour>
      <point x="414" y="694" type="move" name="top"/>
    </contour>
    <contour>
      <point x="498" y="694" type="move" name="topright"/>
    </contour>
    <contour>
      <point x="367" y="608" type="move" name="center"/>
    </contour>
  </outline>
</glyph>
<glyph name="n" format="1">
  <advance width="500"/>
  <unicode hex="006E"/>
  <outline>
    <contour>
      <point x="83" y="0" type="line"/>
      <point x="83" y="454" type="line"/>
      <point x="130" y="479"/>
      <point x="183" y="491"/>
      <point x="242" y="491" type="curve" smooth="yes"/>
      <point x="342" y="491"/>
      <point x="414" y="442"/>
      <point x="414" y="347" type="curve" smooth="yes"/>
      <point x="414" y="0" type="line"/>
      <point x="433" y="0" type="line"/>
      <point x="433" y="346" type="line" smooth="yes"/>
      <point x="433" y="460"/>
      <point x="358" y="510"/>
      <point x="238" y="510" type="curve" smooth="yes"/>
      <point x="178" y="510"/>
      <point x="129" y="498"/>
      <point x="83" y="475" type="curve"/>
      <point x="83" y="501" type="line"/>
      <point x="64" y="501" type="line"/>
      <point x="64" y="0" type="line"/>
    </contour>
    <contour>
      <point x="250" y="501" type="move" name="top"/>
    </contour>
    <contour>
      <point x="250" y="0" type="move" name="bottom"/>
    </contour>
  </outline>
</glyph>
<glyph name="u" format="1">
  <advance width="447"/>
  <unicode hex="0075"/>
  <outline>
    <contour>
      <point x="296" y="-11"/>
      <point x="355" y="19"/>
      <point x="390" y="78" type="curve"/>
      <point x="390" y="0" type="line"/>
      <point x="409" y="0" type="line"/>
      <point x="409" y="501" type="line"/>
      <point x="390" y="501" type="line"/>
      <point x="390" y="160" type="line" smooth="yes"/>
      <point x="390" y="68"/>
      <point x="323" y="9"/>
      <point x="214" y="9" type="curve" smooth="yes"/>
      <point x="106" y="9"/>
      <point x="55" y="68"/>
      <point x="55" y="176" type="curve" smooth="yes"/>
      <point x="55" y="501" type="line"/>
      <point x="36" y="501" type="line"/>
      <point x="36" y="176" type="line" smooth="yes"/>
      <point x="36" y="51"/>
      <point x="95" y="-11"/>
      <point x="214" y="-11" type="curve" smooth="yes"/>
    </contour>
    <contour>
      <point x="409" y="0" type="move" name="ogonek"/>
    </contour>
    <contour>
      <point x="224" y="501" type="move" name="top"/>
    </contour>
    <contour>
      <point x="427" y="501" type="move" name="topright"/>
    </contour>
    <contour>
      <point x="224" y="0" type="move" name="bottom"/>
    </contour>
  </outline>
</glyph>
<glyph name="y" format="1">
  <advance width="473"/>
  <unicode hex="0079"/>
  <outline>
    <contour>
      <point x="383" y="-186"/>
      <point x="412" y="-142"/>
      <point x="412" y="-61" type="curve" smooth="yes"/>
      <point x="412" y="404" type="line" smooth="yes"/>
      <point x="412" y="451"/>
      <point x="421" y="481"/>
      <point x="439" y="494" type="curve"/>
      <point x="431" y="510" type="line"/>
      <point x="398" y="491"/>
      <point x="393" y="454"/>
      <point x="393" y="373" type="curve" smooth="yes"/>
      <point x="393" y="166" type="line" smooth="yes"/>
      <point x="393" y="74"/>
      <point x="324" y="7"/>
      <point x="216" y="7" type="curve" smooth="yes"/>
      <point x="108" y="7"/>
      <point x="56" y="70"/>
      <point x="56" y="166" type="curve" smooth="yes"/>
      <point x="56" y="501" type="line"/>
      <point x="37" y="501" type="line"/>
      <point x="37" y="176" type="line" smooth="yes"/>
      <point x="37" y="52"/>
      <point x="103" y="-12"/>
      <point x="220" y="-12" type="curve" smooth="yes"/>
      <point x="285" y="-12"/>
      <point x="358" y="15"/>
      <point x="394" y="87" type="curve"/>
      <point x="394" y="-63" type="line" smooth="yes"/>
      <point x="394" y="-133"/>
      <point x="363" y="-176"/>
      <point x="301" y="-192" type="curve"/>
      <point x="307" y="-210" type="line"/>
    </contour>
    <contour>
      <point x="225" y="501" type="move" name="top"/>
    </contour>
    <contour>
      <point x="211" y="0" type="move" name="bottom"/>
    </contour>
  </outline>
</glyph>
<glyph name="braceleft" format="1">
  <advance width="305"/>
  <unicode hex="007B"/>
  <outline>
    <contour>
      <point x="266" y="-99" type="line"/>
      <point x="194" y="-60"/>
      <point x="171" y="-17"/>
      <point x="171" y="76" type="curve" smooth="yes"/>
      <point x="171" y="229" type="line" smooth="yes"/>
      <point x="171" y="288"/>
      <point x="139" y="318"/>
      <point x="104" y="354" type="curve"/>
      <point x="147" y="398"/>
      <point x="169" y="433"/>
      <point x="169" y="480" type="curve" smooth="yes"/>
      <point x="169" y="641" type="line" smooth="yes"/>
      <point x="169" y="716"/>
      <point x="194" y="770"/>
      <point x="263" y="806" type="curve"/>
      <point x="256" y="821" type="line"/>
      <point x="171" y="773"/>
      <point x="150" y="731"/>
      <point x="150" y="620" type="curve" smooth="yes"/>
      <point x="150" y="482" type="line" smooth="yes"/>
      <point x="150" y="426"/>
      <point x="110" y="379"/>
      <point x="78" y="354" type="curve"/>
      <point x="106" y="328"/>
      <point x="152" y="286"/>
      <point x="152" y="227" type="curve" smooth="yes"/>
      <point x="152" y="101" type="line" smooth="yes"/>
      <point x="152" y="-26"/>
      <point x="171" y="-67"/>
      <point x="258" y="-116" type="curve"/>
    </contour>
  </outline>
</glyph>
<glyph name="sterling" format="1">
  <advance width="477"/>
  <unicode hex="00A3"/>
  <outline>
    <contour>
      <point x="438" y="0" type="line"/>
      <point x="438" y="20" type="line"/>
      <point x="119" y="20" type="line"/>
      <point x="171" y="57"/>
      <point x="213" y="123"/>
      <point x="213" y="212" type="curve" smooth="yes"/>
      <point x="213" y="251"/>
      <point x="205" y="294"/>
      <point x="188" y="339" type="curve"/>
      <point x="421" y="339" type="line"/>
      <point x="421" y="358" type="line"/>
      <point x="180" y="358" type="line"/>
      <point x="156" y="431"/>
      <point x="144" y="477"/>
      <point x="144" y="519" type="curve" smooth="yes"/>
      <point x="144" y="619"/>
      <point x="211" y="690"/>
      <point x="322" y="690" type="curve" smooth="yes"/>
      <point x="356" y="690"/>
      <point x="390" y="683"/>
      <point x="419" y="669" type="curve"/>
      <point x="429" y="686" type="line"/>
      <point x="397" y="701"/>
      <point x="362" y="709"/>
      <point x="322" y="709" type="curve" smooth="yes"/>
      <point x="202" y="709"/>
      <point x="125" y="634"/>
      <point x="125" y="520" type="curve" smooth="yes"/>
      <point x="125" y="476"/>
      <point x="137" y="429"/>
      <point x="160" y="358" type="curve"/>
      <point x="101" y="358" type="line"/>
      <point x="101" y="339" type="line"/>
      <point x="167" y="339" type="line"/>
      <point x="184" y="289"/>
      <point x="193" y="251"/>
      <point x="193" y="213" type="curve" smooth="yes"/>
      <point x="193" y="120"/>
      <point x="145" y="48"/>
      <point x="78" y="15" type="curve"/>
      <point x="78" y="0" type="line"/>
    </contour>
  </outline>
</glyph>
<glyph name="yen" format="1">
  <advance width="560"/>
  <unicode hex="00A5"/>
  <outline>
    <contour>
      <point x="293" y="0" type="line"/>
      <point x="293" y="342" type="line"/>
      <point x="521" y="700" type="line"/>
      <point x="498" y="700" type="line"/>
      <point x="284" y="362" type="line"/>
      <point x="72" y="700" type="line"/>
      <point x="49" y="700" type="line"/>
      <point x="275" y="342" type="line"/>
      <point x="275" y="0" type="line"/>
    </contour>
    <contour>
      <point x="446" y="276" type="line"/>
      <point x="446" y="295" type="line"/>
      <point x="126" y="295" type="line"/>
      <point x="126" y="276" type="line"/>
    </contour>
    <contour>
      <point x="446" y="340" type="line"/>
      <point x="446" y="359" type="line"/>
      <point x="126" y="359" type="line"/>
      <point x="126" y="340" type="line"/>
    </contour>
  </outline>
</glyph>
<glyph name="section" format="1">
  <advance width="592"/>
  <unicode hex="00A7"/>
  <outline>
    <contour>
      <point x="476" y="-197"/>
      <point x="553" y="-120"/>
      <point x="553" y="-8" type="curve" smooth="yes"/>
      <point x="553" y="132"/>
      <point x="442" y="173"/>
      <point x="319" y="216" type="curve" smooth="yes"/>
      <point x="212" y="253"/>
      <point x="117" y="286"/>
      <point x="117" y="369" type="curve" smooth="yes"/>
      <point x="117" y="397"/>
      <point x="129" y="421"/>
      <point x="148" y="440" type="curve"/>
      <point x="134" y="455" type="line"/>
      <point x="109" y="431"/>
      <point x="96" y="403"/>
      <point x="96" y="372" type="curve" smooth="yes"/>
      <point x="96" y="272"/>
      <point x="201" y="236"/>
      <point x="312" y="196" type="curve" smooth="yes"/>
      <point x="430" y="153"/>
      <point x="532" y="118"/>
      <point x="532" y="-8" type="curve" smooth="yes"/>
      <point x="532" y="-124"/>
      <point x="444" y="-179"/>
      <point x="317" y="-179" type="curve" smooth="yes"/>
      <point x="172" y="-179"/>
      <point x="100" y="-91"/>
      <point x="100" y="-8" type="curve"/>
      <point x="78" y="-8" type="line"/>
      <point x="81" y="-107"/>
      <point x="166" y="-197"/>
      <point x="321" y="-197" type="curve" smooth="yes"/>
    </contour>
    <contour>
      <point x="540" y="101"/>
      <point x="553" y="132"/>
      <point x="553" y="167" type="curve" smooth="yes"/>
      <point x="553" y="274"/>
      <point x="442" y="315"/>
      <point x="319" y="360" type="curve" smooth="yes"/>
      <point x="224" y="395"/>
      <point x="117" y="437"/>
      <point x="117" y="540" type="curve" smooth="yes"/>
      <point x="117" y="636"/>
      <point x="208" y="693"/>
      <point x="317" y="693" type="curve" smooth="yes"/>
      <point x="372" y="693"/>
      <point x="419" y="683"/>
      <point x="459" y="662" type="curve"/>
      <point x="467" y="682" type="line"/>
      <point x="425" y="702"/>
      <point x="376" y="712"/>
      <point x="321" y="712" type="curve" smooth="yes"/>
      <point x="176" y="712"/>
      <point x="96" y="634"/>
      <point x="96" y="543" type="curve" smooth="yes"/>
      <point x="96" y="422"/>
      <point x="212" y="377"/>
      <point x="312" y="340" type="curve" smooth="yes"/>
      <point x="430" y="297"/>
      <point x="532" y="260"/>
      <point x="532" y="167" type="curve" smooth="yes"/>
      <point x="532" y="137"/>
      <point x="522" y="113"/>
      <point x="503" y="94" type="curve"/>
      <point x="515" y="77" type="line"/>
    </contour>
  </outline>
</glyph>
<glyph name="Aring" format="1">
  <advance width="527"/>
  <unicode hex="00C5"/>
  <outline>
    <contour>
      <point x="31" y="0" type="line"/>
      <point x="130" y="281" type="line"/>
      <point x="398" y="281" type="line"/>
      <point x="496" y="0" type="line"/>
      <point x="517" y="0" type="line"/>
      <point x="271" y="700" type="line"/>
      <point x="257" y="700" type="line"/>
      <point x="12" y="0" type="line"/>
    </contour>
    <contour>
      <point x="264" y="660" type="line"/>
      <point x="391" y="300" type="line"/>
      <point x="137" y="300" type="line"/>
    </contour>
    <contour>
      <point x="323" y="681"/>
      <point x="371" y="730"/>
      <point x="371" y="788" type="curve" smooth="yes"/>
      <point x="371" y="845"/>
      <point x="323" y="894"/>
      <point x="264" y="894" type="curve" smooth="yes"/>
      <point x="204" y="894"/>
      <point x="157" y="845"/>
      <point x="157" y="788" type="curve" smooth="yes"/>
      <point x="157" y="730"/>
      <point x="204" y="681"/>
      <point x="264" y="681" type="curve" smooth="yes"/>
    </contour>
    <contour>
      <point x="216" y="702"/>
      <point x="178" y="741"/>
      <point x="178" y="788" type="curve" smooth="yes"/>
      <point x="178" y="835"/>
      <point x="216" y="873"/>
      <point x="264" y="873" type="curve" smooth="yes"/>
      <point x="312" y="873"/>
      <point x="349" y="835"/>
      <point x="349" y="788" type="curve" smooth="yes"/>
      <point x="349" y="741"/>
      <point x="312" y="702"/>
      <point x="264" y="702" type="curve" smooth="yes"/>
    </contour>
    <contour>
      <point x="517" y="0" type="move" name="ogonek"/>
    </contour>
    <contour>
      <point x="264" y="694" type="move" name="top"/>
    </contour>
    <contour>
      <point x="264" y="694" type="move" name="_top"/>
    </contour>
    <contour>
      <point x="264" y="0" type="move" name="bottom"/>
    </contour>
  </outline>
</glyph>
<glyph name="eth" format="1">
  <advance width="469"/>
  <unicode hex="00F0"/>
  <outline>
    <contour>
      <point x="363" y="-10"/>
      <point x="423" y="72"/>
      <point x="423" y="184" type="curve" smooth="yes"/>
      <point x="423" y="433" type="line" smooth="yes"/>
      <point x="423" y="602"/>
      <point x="372" y="663"/>
      <point x="216" y="706" type="curve"/>
      <point x="211" y="689" type="line"/>
      <point x="359" y="652"/>
      <point x="404" y="578"/>
      <point x="404" y="442" type="curve" smooth="yes"/>
      <point x="404" y="429" type="line"/>
      <point x="355" y="486"/>
      <point x="309" y="510"/>
      <point x="236" y="510" type="curve" smooth="yes"/>
      <point x="135" y="510"/>
      <point x="54" y="462"/>
      <point x="54" y="336" type="curve" smooth="yes"/>
      <point x="54" y="184" type="line" smooth="yes"/>
      <point x="54" y="73"/>
      <point x="117" y="-10"/>
      <point x="240" y="-10" type="curve" smooth="yes"/>
    </contour>
    <contour>
      <point x="126" y="8"/>
      <point x="73" y="87"/>
      <point x="73" y="184" type="curve" smooth="yes"/>
      <point x="73" y="339" type="line" smooth="yes"/>
      <point x="73" y="439"/>
      <point x="134" y="491"/>
      <point x="237" y="491" type="curve" smooth="yes"/>
      <point x="305" y="491"/>
      <point x="356" y="466"/>
      <point x="404" y="404" type="curve"/>
      <point x="404" y="184" type="line" smooth="yes"/>
      <point x="404" y="84"/>
      <point x="352" y="8"/>
      <point x="239" y="8" type="curve" smooth="yes"/>
    </contour>
    <contour>
      <point x="430" y="639" type="line"/>
      <point x="424" y="656" type="line"/>
      <point x="204" y="576" type="line"/>
      <point x="210" y="559" type="line"/>
    </contour>
  </outline>
</glyph>
<glyph name="divide" format="1">
  <advance width="437"/>
  <unicode hex="00F7"/>
  <outline>
    <contour>
      <point x="398" y="378" type="line"/>
      <point x="398" y="397" type="line"/>
      <point x="78" y="397" type="line"/>
      <point x="78" y="378" type="line"/>
    </contour>
    <contour>
      <point x="265" y="277"/>
      <point x="243" y="297"/>
      <point x="230" y="284" type="curve" smooth="yes"/>
      <point x="216" y="270"/>
      <point x="237" y="249"/>
      <point x="250" y="262" type="curve" smooth="yes"/>
    </contour>
    <contour>
      <point x="265" y="498"/>
      <point x="243" y="518"/>
      <point x="230" y="504" type="curve" smooth="yes"/>
      <point x="216" y="491"/>
      <point x="237" y="470"/>
      <point x="250" y="483" type="curve" smooth="yes"/>
    </contour>
  </outline>
</glyph>
<glyph name="idotless" format="1">
  <advance width="177"/>
  <unicode hex="0131"/>
  <outline>
    <contour>
      <point x="97" y="0" type="line"/>
      <point x="97" y="501" type="line"/>
      <point x="78" y="501" type="line"/>
      <point x="78" y="0" type="line"/>
    </contour>
    <contour>
      <point x="97" y="0" type="move" name="ogonek"/>
    </contour>
    <contour>
      <point x="88" y="0" type="move" name="bottom"/>
    </contour>
    <contour>
      <point x="88" y="501" type="move" name="top"/>
    </contour>
  </outline>
</glyph>
<glyph name="kgreenlandic" format="1">
  <advance width="486"/>
  <unicode hex="0138"/>
  <outline>
    <contour>
      <point x="447" y="19" type="line"/>
      <point x="416" y="19"/>
      <point x="378" y="50"/>
      <point x="331" y="113" type="curve" smooth="yes"/>
      <point x="204" y="292" type="line"/>
      <point x="396" y="501" type="line"/>
      <point x="369" y="501" type="line"/>
      <point x="97" y="205" type="line"/>
      <point x="97" y="507" type="line"/>
      <point x="78" y="512" type="line"/>
      <point x="78" y="0" type="line"/>
      <point x="97" y="0" type="line"/>
      <point x="97" y="179" type="line"/>
      <point x="191" y="278" type="line"/>
      <point x="320" y="98" type="line" smooth="yes"/>
      <point x="367" y="32"/>
      <point x="410" y="-1"/>
      <point x="447" y="-1" type="curve"/>
    </contour>
  </outline>
</glyph>
<glyph name="gravecomb" format="1">
  <advance width="222"/>
  <unicode hex="0300"/>
  <outline>
    <contour>
      <point x="128" y="668" type="line" smooth="yes"/>
      <point x="125" y="675"/>
      <point x="119" y="679"/>
      <point x="112" y="679" type="curve" smooth="yes"/>
      <point x="104" y="679"/>
      <point x="97" y="674"/>
      <point x="97" y="666" type="curve" smooth="yes"/>
      <point x="97" y="661"/>
      <point x="99" y="656"/>
      <point x="102" y="651" type="curve" smooth="yes"/>
      <point x="165" y="538" type="line"/>
      <point x="184" y="538" type="line"/>
    </contour>
    <contour>
      <point x="163" y="679" type="move" name="top"/>
    </contour>
    <contour>
      <point x="163" y="501" type="move" name="_top"/>
    </contour>
  </outline>
</glyph>
<glyph name="tildecomb" format="1">
  <advance width="438"/>
  <unicode hex="0303"/>
  <outline>
    <contour>
      <point x="346" y="573"/>
      <point x="374" y="585"/>
      <point x="399" y="608" type="curve"/>
      <point x="389" y="625" type="line"/>
      <point x="368" y="604"/>
      <point x="347" y="593"/>
      <point x="321" y="593" type="curve" smooth="yes"/>
      <point x="265" y="593"/>
      <point x="233" y="637"/>
      <point x="177" y="637" type="curve" smooth="yes"/>
      <point x="142" y="637"/>
      <point x="109" y="621"/>
      <point x="78" y="588" type="curve"/>
      <point x="89" y="572" type="line"/>
      <point x="114" y="601"/>
      <point x="142" y="616"/>
      <point x="173" y="616" type="curve" smooth="yes"/>
      <point x="222" y="616"/>
      <point x="260" y="573"/>
      <point x="317" y="573" type="curve" smooth="yes"/>
    </contour>
    <contour>
      <point x="243" y="637" type="move" name="top"/>
    </contour>
    <contour>
      <point x="243" y="501" type="move" name="_top"/>
    </contour>
  </outline>
</glyph>
<glyph name="brevecomb" format="1">
  <advance width="361"/>
  <unicode hex="0306"/>
  <outline>
    <contour>
      <point x="216" y="539"/>
      <point x="272" y="577"/>
      <point x="272" y="651" type="curve" smooth="yes"/>
      <point x="272" y="656" type="line"/>
      <point x="251" y="656" type="line"/>
      <point x="251" y="651" type="line" smooth="yes"/>
      <point x="251" y="591"/>
      <point x="205" y="560"/>
      <point x="158" y="560" type="curve" smooth="yes"/>
      <point x="113" y="560"/>
      <point x="67" y="590"/>
      <point x="67" y="651" type="curve" smooth="yes"/>
      <point x="67" y="656" type="line"/>
      <point x="46" y="656" type="line"/>
      <point x="46" y="651" type="line" smooth="yes"/>
      <point x="46" y="577"/>
      <point x="103" y="539"/>
      <point x="159" y="539" type="curve" smooth="yes"/>
    </contour>
    <contour>
      <point x="159" y="656" type="move" name="top"/>
    </contour>
    <contour>
      <point x="159" y="501" type="move" name="_top"/>
    </contour>
  </outline>
</glyph>
<glyph name="dotaccentcomb" format="1">
  <advance width="110"/>
  <unicode hex="0307"/>
  <outline>
    <contour>
      <point x="63" y="574"/>
      <point x="70" y="582"/>
      <point x="70" y="589" type="curve" smooth="yes"/>
      <point x="70" y="597"/>
      <point x="63" y="604"/>
      <point x="55" y="604" type="curve" smooth="yes"/>
      <point x="47" y="604"/>
      <point x="40" y="597"/>
      <point x="40" y="590" type="curve" smooth="yes"/>
      <point x="40" y="581"/>
      <point x="48" y="574"/>
      <point x="56" y="574" type="curve" smooth="yes"/>
    </contour>
    <contour>
      <point x="55" y="604" type="move" name="top"/>
    </contour>
    <contour>
      <point x="55" y="501" type="move" name="_top"/>
    </contour>
  </outline>
</glyph>
<glyph name="dieresiscomb" format="1">
  <advance width="239"/>
  <unicode hex="0308"/>
  <outline>
    <contour>
      <point x="191" y="574"/>
      <point x="199" y="580"/>
      <point x="199" y="589" type="curve" smooth="yes"/>
      <point x="199" y="598"/>
      <point x="191" y="604"/>
      <point x="184" y="604" type="curve" smooth="yes"/>
      <point x="177" y="604"/>
      <point x="169" y="598"/>
      <point x="169" y="589" type="curve" smooth="yes"/>
      <point x="169" y="580"/>
      <point x="177" y="574"/>
      <point x="184" y="574" type="curve" smooth="yes"/>
    </contour>
    <contour>
      <point x="62" y="573"/>
      <point x="70" y="579"/>
      <point x="70" y="588" type="curve" smooth="yes"/>
      <point x="70" y="597"/>
      <point x="62" y="603"/>
      <point x="55" y="603" type="curve" smooth="yes"/>
      <point x="48" y="603"/>
      <point x="40" y="597"/>
      <point x="40" y="588" type="curve" smooth="yes"/>
      <point x="40" y="579"/>
      <point x="48" y="573"/>
      <point x="55" y="573" type="curve" smooth="yes"/>
    </contour>
    <contour>
      <point x="120" y="604" type="move" name="top"/>
    </contour>
    <contour>
      <point x="120" y="501" type="move" name="_top"/>
    </contour>
  </outline>
</glyph>
<glyph name="ringcomb" format="1">
  <advance width="308"/>
  <unicode hex="030A"/>
  <outline>
    <contour>
      <point x="217" y="474"/>
      <point x="268" y="526"/>
      <point x="268" y="588" type="curve" smooth="yes"/>
      <point x="268" y="649"/>
      <point x="217" y="701"/>
      <point x="154" y="701" type="curve" smooth="yes"/>
      <point x="90" y="701"/>
      <point x="40" y="649"/>
      <point x="40" y="588" type="curve" smooth="yes"/>
      <point x="40" y="526"/>
      <point x="90" y="474"/>
      <point x="154" y="474" type="curve" smooth="yes"/>
    </contour>
    <contour>
      <point x="102" y="495"/>
      <point x="61" y="537"/>
      <point x="61" y="588" type="curve" smooth="yes"/>
      <point x="61" y="639"/>
      <point x="102" y="680"/>
      <point x="154" y="680" type="curve" smooth="yes"/>
      <point x="206" y="680"/>
      <point x="246" y="639"/>
      <point x="246" y="588" type="curve" smooth="yes"/>
      <point x="246" y="537"/>
      <point x="206" y="495"/>
      <point x="154" y="495" type="curve" smooth="yes"/>
    </contour>
    <contour>
      <point x="154" y="702" type="move" name="top"/>
    </contour>
    <contour>
      <point x="154" y="501" type="move" name="_top"/>
    </contour>
  </outline>
</glyph>
<glyph name="caroncomb" format="1">
  <advance width="370"/>
  <unicode hex="030C"/>
  <outline>
    <contour>
      <point x="330" y="699" type="line"/>
      <point x="315" y="714" type="line"/>
      <point x="187" y="588" type="line"/>
      <point x="55" y="714" type="line"/>
      <point x="40" y="699" type="line"/>
      <point x="188" y="558" type="line"/>
    </contour>
    <contour>
      <point x="186" y="698" type="move" name="top"/>
    </contour>
    <contour>
      <point x="186" y="501" type="move" name="_top"/>
    </contour>
  </outline>
</glyph>
<glyph name="commaturnedabovecomb" format="1">
  <advance width="148"/>
  <unicode hex="0312"/>
  <outline>
    <component base="quoteleft" xOffset="20" yOffset="-24"/>
    <contour>
      <point x="62" y="688" type="move" name="top"/>
    </contour>
    <contour>
      <point x="62" y="501" type="move" name="_top"/>
    </contour>
  </outline>
</glyph>
<glyph name="ogonekcomb" format="1">
  <advance width="249"/>
  <unicode hex="0328"/>
  <outline>
    <contour>
      <point x="160" y="-213"/>
      <point x="187" y="-200"/>
      <point x="209" y="-176" type="curve"/>
      <point x="194" y="-163" type="line"/>
      <point x="175" y="-183"/>
      <point x="152" y="-193"/>
      <point x="127" y="-193" type="curve" smooth="yes"/>
      <point x="89" y="-193"/>
      <point x="60" y="-167"/>
      <point x="60" y="-129" type="curve" smooth="yes"/>
      <point x="60" y="-89"/>
      <point x="93" y="-45"/>
      <point x="160" y="0" type="curve"/>
      <point x="141" y="5" type="line"/>
      <point x="68" y="-43"/>
      <point x="40" y="-84"/>
      <point x="40" y="-129" type="curve" smooth="yes"/>
      <point x="40" y="-183"/>
      <point x="77" y="-213"/>
      <point x="127" y="-213" type="curve" smooth="yes"/>
    </contour>
    <contour>
      <point x="160" y="0" type="move" name="_ogonek"/>
    </contour>
  </outline>
</glyph>
<glyph name="strokelongcomb" format="1">
  <advance width="607"/>
  <unicode hex="0336"/>
  <outline>
    <contour>
      <point x="567" y="519" type="line"/>
      <point x="567" y="538" type="line"/>
      <point x="40" y="538" type="line"/>
      <point x="40" y="519" type="line"/>
    </contour>
    <contour>
      <point x="304" y="529" type="move" name="_center"/>
    </contour>
  </outline>
</glyph>
<glyph name="slashlongcomb" format="1">
  <advance width="437"/>
  <unicode hex="0338"/>
  <outline>
    <contour>
      <point x="61" y="-114" type="line"/>
      <point x="397" y="643" type="line"/>
      <point x="376" y="643" type="line"/>
      <point x="40" y="-114" type="line"/>
    </contour>
    <contour>
      <point x="219" y="265" type="move" name="_center"/>
    </contour>
  </outline>
</glyph>
<glyph name="dieresistonos" format="1">
  <advance width="249"/>
  <unicode hex="0385"/>
  <outline>
    <component base="dieresiscomb.alt"/>
    <component base="tonos" xOffset="69" yOffset="58"/>
    <contour>
      <point x="125" y="501" type="move" name="_top"/>
    </contour>
  </outline>
</glyph>
<glyph name="Alpha" format="1">
  <advance width="527"/>
  <unicode hex="0391"/>
  <outline>
    <component base="A"/>
    <contour>
      <point x="165" y="694" type="move" name="topleft"/>
    </contour>
  </outline>
</glyph>
<glyph name="Phi" format="1">
  <advance width="684"/>
  <unicode hex="03A6"/>
  <outline>
    <contour>
      <point x="371" y="0" type="line"/>
      <point x="371" y="100" type="line"/>
      <point x="438" y="100" type="line" smooth="yes"/>
      <point x="576" y="100"/>
      <point x="645" y="184"/>
      <point x="645" y="352" type="curve" smooth="yes"/>
      <point x="645" y="512"/>
      <point x="582" y="613"/>
      <point x="451" y="613" type="curve" smooth="yes"/>
      <point x="371" y="613" type="line"/>
      <point x="371" y="700" type="line"/>
      <point x="352" y="700" type="line"/>
      <point x="352" y="613" type="line"/>
      <point x="272" y="613" type="line" smooth="yes"/>
      <point x="141" y="613"/>
      <point x="78" y="512"/>
      <point x="78" y="352" type="curve" smooth="yes"/>
      <point x="78" y="184"/>
      <point x="147" y="100"/>
      <point x="285" y="100" type="curve" smooth="yes"/>
      <point x="352" y="100" type="line"/>
      <point x="352" y="0" type="line"/>
    </contour>
    <contour>
      <point x="160" y="119"/>
      <point x="97" y="197"/>
      <point x="97" y="352" type="curve" smooth="yes"/>
      <point x="97" y="500"/>
      <point x="151" y="593"/>
      <point x="271" y="593" type="curve" smooth="yes"/>
      <point x="352" y="593" type="line"/>
      <point x="352" y="119" type="line"/>
      <point x="287" y="119" type="line" smooth="yes"/>
    </contour>
    <contour>
      <point x="371" y="593" type="line"/>
      <point x="452" y="593" type="line" smooth="yes"/>
      <point x="572" y="593"/>
      <point x="626" y="500"/>
      <point x="626" y="352" type="curve" smooth="yes"/>
      <point x="626" y="197"/>
      <point x="563" y="119"/>
      <point x="436" y="119" type="curve" smooth="yes"/>
      <point x="371" y="119" type="line"/>
    </contour>
  </outline>
</glyph>
<glyph name="beta" format="1">
  <advance width="487"/>
  <unicode hex="03B2"/>
  <outline>
    <contour>
      <point x="97" y="-161" type="line"/>
      <point x="97" y="-9" type="line"/>
      <point x="140" y="-16"/>
      <point x="174" y="-19"/>
      <point x="202" y="-19" type="curve" smooth="yes"/>
      <point x="344" y="-19"/>
      <point x="448" y="24"/>
      <point x="448" y="146" type="curve" smooth="yes"/>
      <point x="448" y="327" type="line" smooth="yes"/>
      <point x="448" y="437"/>
      <point x="378" y="495"/>
      <point x="274" y="498" type="curve"/>
      <point x="322" y="522"/>
      <point x="333" y="563"/>
      <point x="333" y="592" type="curve" smooth="yes"/>
      <point x="333" y="653"/>
      <point x="284" y="700"/>
      <point x="213" y="700" type="curve" smooth="yes"/>
      <point x="131" y="700"/>
      <point x="78" y="639"/>
      <point x="78" y="536" type="curve" smooth="yes"/>
      <point x="78" y="-161" type="line"/>
    </contour>
    <contour>
      <point x="175" y="-1"/>
      <point x="136" y="3"/>
      <point x="97" y="12" type="curve"/>
      <point x="97" y="443" type="line"/>
      <point x="144" y="467"/>
      <point x="197" y="480"/>
      <point x="255" y="480" type="curve" smooth="yes"/>
      <point x="367" y="480"/>
      <point x="429" y="430"/>
      <point x="429" y="327" type="curve" smooth="yes"/>
      <point x="429" y="149" type="line" smooth="yes"/>
      <point x="429" y="41"/>
      <point x="341" y="-1"/>
      <point x="214" y="-1" type="curve" smooth="yes"/>
    </contour>
    <contour>
      <point x="97" y="530" type="line" smooth="yes"/>
      <point x="97" y="631"/>
      <point x="145" y="682"/>
      <point x="213" y="682" type="curve" smooth="yes"/>
      <point x="275" y="682"/>
      <point x="313" y="639"/>
      <point x="313" y="591" type="curve" smooth="yes"/>
      <point x="313" y="562"/>
      <point x="297" y="531"/>
      <point x="268" y="514" type="curve" smooth="yes"/>
      <point x="254" y="506"/>
      <point x="239" y="502"/>
      <point x="213" y="498" type="curve" smooth="yes"/>
      <point x="148" y="488"/>
      <point x="116" y="473"/>
      <point x="97" y="463" type="curve"/>
    </contour>
  </outline>
</glyph>
<glyph name="epsilon" format="1">
  <advance width="462"/>
  <unicode hex="03B5"/>
  <outline>
    <contour>
      <point x="313" y="-11"/>
      <point x="371" y="-2"/>
      <point x="423" y="23" type="curve"/>
      <point x="416" y="40" type="line"/>
      <point x="367" y="18"/>
      <point x="317" y="9"/>
      <point x="264" y="9" type="curve" smooth="yes"/>
      <point x="145" y="9"/>
      <point x="96" y="78"/>
      <point x="96" y="150" type="curve" smooth="yes"/>
      <point x="96" y="218"/>
      <point x="143" y="282"/>
      <point x="232" y="282" type="curve" smooth="yes"/>
      <point x="346" y="282" type="line"/>
      <point x="352" y="301" type="line"/>
      <point x="207" y="301" type="line" smooth="yes"/>
      <point x="148" y="301"/>
      <point x="117" y="337"/>
      <point x="117" y="385" type="curve" smooth="yes"/>
      <point x="117" y="453"/>
      <point x="181" y="491"/>
      <point x="264" y="491" type="curve" smooth="yes"/>
      <point x="296" y="491"/>
      <point x="323" y="486"/>
      <point x="353" y="475" type="curve"/>
      <point x="353" y="496" type="line"/>
      <point x="320" y="506"/>
      <point x="289" y="511"/>
      <point x="260" y="511" type="curve" smooth="yes"/>
      <point x="175" y="511"/>
      <point x="98" y="466"/>
      <point x="98" y="386" type="curve" smooth="yes"/>
      <point x="98" y="337"/>
      <point x="124" y="297"/>
      <point x="174" y="287" type="curve"/>
      <point x="110" y="267"/>
      <point x="78" y="222"/>
      <point x="78" y="151" type="curve" smooth="yes"/>
      <point x="78" y="50"/>
      <point x="147" y="-11"/>
      <point x="266" y="-11" type="curve" smooth="yes"/>
    </contour>
    <contour>
      <point x="251" y="501" type="move" name="top"/>
    </contour>
  </outline>
</glyph>
<glyph name="zeta" format="1">
  <advance width="464"/>
  <unicode hex="03B6"/>
  <outline>
    <contour>
      <point x="407" y="-200" type="line"/>
      <point x="407" y="39" type="line"/>
      <point x="358" y="25"/>
      <point x="314" y="18"/>
      <point x="275" y="18" type="curve" smooth="yes"/>
      <point x="160" y="18"/>
      <point x="98" y="80"/>
      <point x="98" y="188" type="curve" smooth="yes"/>
      <point x="98" y="360"/>
      <point x="255" y="525"/>
      <point x="422" y="680" type="curve"/>
      <point x="419" y="700" type="line"/>
      <point x="146" y="700" type="line"/>
      <point x="146" y="680" type="line"/>
      <point x="391" y="680" type="line"/>
      <point x="233" y="529"/>
      <point x="78" y="362"/>
      <point x="78" y="189" type="curve" smooth="yes"/>
      <point x="78" y="68"/>
      <point x="149" y="-1"/>
      <point x="274" y="-1" type="curve" smooth="yes"/>
      <point x="308" y="-1"/>
      <point x="347" y="4"/>
      <point x="388" y="13" type="curve"/>
      <point x="388" y="-209" type="line"/>
    </contour>
  </outline>
</glyph>
<glyph name="theta" format="1">
  <advance width="479"/>
  <unicode hex="03B8"/>
  <outline>
    <contour>
      <point x="374" y="-6"/>
      <point x="442" y="72"/>
      <point x="442" y="191" type="curve" smooth="yes"/>
      <point x="442" y="505" type="line" smooth="yes"/>
      <point x="442" y="632"/>
      <point x="377" y="710"/>
      <point x="250" y="710" type="curve" smooth="yes"/>
      <point x="138" y="710"/>
      <point x="83" y="646"/>
      <point x="83" y="562" type="curve" smooth="yes"/>
      <point x="83" y="522"/>
      <point x="95" y="478"/>
      <point x="119" y="434" type="curve"/>
      <point x="84" y="403"/>
      <point x="63" y="367"/>
      <point x="63" y="306" type="curve" smooth="yes"/>
      <point x="62" y="191" type="line" smooth="yes"/>
      <point x="62" y="72"/>
      <point x="130" y="-6"/>
      <point x="252" y="-6" type="curve" smooth="yes"/>
    </contour>
    <contour>
      <point x="142" y="12"/>
      <point x="81" y="83"/>
      <point x="81" y="195" type="curve" smooth="yes"/>
      <point x="81" y="307" type="line" smooth="yes"/>
      <point x="81" y="442"/>
      <point x="221" y="488"/>
      <point x="372" y="488" type="curve" smooth="yes"/>
      <point x="394" y="488"/>
      <point x="410" y="487"/>
      <point x="423" y="486" type="curve"/>
      <point x="423" y="185" type="line" smooth="yes"/>
      <point x="423" y="88"/>
      <point x="359" y="12"/>
      <point x="251" y="12" type="curve" smooth="yes"/>
    </contour>
    <contour>
      <point x="112" y="488"/>
      <point x="101" y="522"/>
      <point x="101" y="560" type="curve" smooth="yes"/>
      <point x="101" y="644"/>
      <point x="157" y="692"/>
      <point x="250" y="692" type="curve" smooth="yes"/>
      <point x="361" y="692"/>
      <point x="423" y="624"/>
      <point x="423" y="505" type="curve"/>
      <point x="411" y="506"/>
      <point x="396" y="507"/>
      <point x="374" y="507" type="curve" smooth="yes"/>
      <point x="270" y="507"/>
      <point x="188" y="487"/>
      <point x="135" y="447" type="curve"/>
    </contour>
  </outline>
</glyph>
<glyph name="rho" format="1">
  <advance width="490"/>
  <unicode hex="03C1"/>
  <outline>
    <contour>
      <point x="97" y="-206" type="line"/>
      <point x="96" y="79" type="line"/>
      <point x="124" y="21"/>
      <point x="176" y="-10"/>
      <point x="261" y="-10" type="curve" smooth="yes"/>
      <point x="383" y="-10"/>
      <point x="451" y="51"/>
      <point x="451" y="174" type="curve" smooth="yes"/>
      <point x="451" y="304" type="line" smooth="yes"/>
      <point x="451" y="439"/>
      <point x="388" y="507"/>
      <point x="267" y="507" type="curve" smooth="yes"/>
      <point x="140" y="507"/>
      <point x="78" y="430"/>
      <point x="78" y="306" type="curve" smooth="yes"/>
      <point x="78" y="-211" type="line"/>
    </contour>
    <contour>
      <point x="155" y="9"/>
      <point x="96" y="65"/>
      <point x="96" y="170" type="curve" smooth="yes"/>
      <point x="96" y="305" type="line" smooth="yes"/>
      <point x="96" y="428"/>
      <point x="160" y="488"/>
      <point x="266" y="488" type="curve" smooth="yes"/>
      <point x="377" y="488"/>
      <point x="432" y="419"/>
      <point x="432" y="304" type="curve" smooth="yes"/>
      <point x="432" y="174" type="line" smooth="yes"/>
      <point x="432" y="64"/>
      <point x="370" y="9"/>
      <point x="261" y="9" type="curve" smooth="yes"/>
    </contour>
  </outline>
</glyph>
<glyph name="tau" format="1">
  <advance width="418"/>
  <unicode hex="03C4"/>
  <outline>
    <contour>
      <point x="310" y="4" type="line"/>
      <point x="268" y="19"/>
      <point x="236" y="57"/>
      <point x="236" y="132" type="curve" smooth="yes"/>
      <point x="236" y="481" type="line"/>
      <point x="379" y="481" type="line"/>
      <point x="379" y="501" type="line"/>
      <point x="78" y="501" type="line"/>
      <point x="78" y="481" type="line"/>
      <point x="217" y="481" type="line"/>
      <point x="217" y="132" type="line" smooth="yes"/>
      <point x="217" y="53"/>
      <point x="251" y="7"/>
      <point x="304" y="-12" type="curve"/>
    </contour>
  </outline>
</glyph>
<glyph name="phi" format="1">
  <advance width="644"/>
  <unicode hex="03C6"/>
  <outline>
    <contour>
      <point x="347" y="-5" type="line"/>
      <point x="417" y="-5" type="line" smooth="yes"/>
      <point x="544" y="-5"/>
      <point x="605" y="68"/>
      <point x="605" y="189" type="curve" smooth="yes"/>
      <point x="605" y="307" type="line" smooth="yes"/>
      <point x="605" y="428"/>
      <point x="536" y="507"/>
      <point x="436" y="507" type="curve" smooth="yes"/>
      <point x="355" y="507"/>
      <point x="329" y="458"/>
      <point x="329" y="398" type="curve" smooth="yes"/>
      <point x="329" y="12" type="line"/>
      <point x="266" y="12" type="line" smooth="yes"/>
      <point x="166" y="12"/>
      <point x="96" y="68"/>
      <point x="96" y="179" type="curve" smooth="yes"/>
      <point x="96" y="316" type="line" smooth="yes"/>
      <point x="96" y="416"/>
      <point x="141" y="471"/>
      <point x="202" y="488" type="curve"/>
      <point x="194" y="503" type="line"/>
      <point x="117" y="478"/>
      <point x="78" y="415"/>
      <point x="78" y="314" type="curve" smooth="yes"/>
      <point x="78" y="189" type="line" smooth="yes"/>
      <point x="78" y="68"/>
      <point x="139" y="-5"/>
      <point x="266" y="-5" type="curve" smooth="yes"/>
      <point x="329" y="-5" type="line"/>
      <point x="329" y="-205" type="line"/>
      <point x="347" y="-212" type="line"/>
    </contour>
    <contour>
      <point x="347" y="398" type="line" smooth="yes"/>
      <point x="347" y="459"/>
      <point x="378" y="490"/>
      <point x="436" y="490" type="curve" smooth="yes"/>
      <point x="523" y="490"/>
      <point x="587" y="417"/>
      <point x="587" y="317" type="curve" smooth="yes"/>
      <point x="587" y="185" type="line" smooth="yes"/>
      <point x="587" y="76"/>
      <point x="530" y="11"/>
      <point x="417" y="11" type="curve" smooth="yes"/>
      <point x="347" y="11" type="line"/>
    </contour>
  </outline>
</glyph>
<glyph name="bullet" format="1">
  <advance width="474"/>
  <unicode hex="2022"/>
  <outline>
    <contour>
      <point x="436" y="236"/>
      <point x="436" y="337" type="curve" smooth="yes"/>
      <point x="436" y="436"/>
      <point x="355" y="517"/>
      <point x="253" y="517" type="curve" smooth="yes"/>
      <point x="153" y="517"/>
      <point x="76" y="435"/>
      <point x="76" y="336" type="curve" smooth="yes"/>
      <point x="76" y="236"/>
      <point x="157" y="156"/>
      <point x="260" y="156" type="curve" smooth="yes"/>
      <point x="360" y="156"/>
    </contour>
  </outline>
</glyph>
<glyph name="perthousand" format="1">
  <advance width="1047"/>
  <unicode hex="2030"/>
  <outline>
    <contour>
      <point x="944" y="-13"/>
      <point x="1011" y="53"/>
      <point x="1011" y="133" type="curve" smooth="yes"/>
      <point x="1011" y="212"/>
      <point x="944" y="279"/>
      <point x="865" y="279" type="curve" smooth="yes"/>
      <point x="785" y="279"/>
      <point x="719" y="212"/>
      <point x="719" y="133" type="curve" smooth="yes"/>
      <point x="719" y="55"/>
      <point x="785" y="-13"/>
      <point x="865" y="-13" type="curve" smooth="yes"/>
    </contour>
    <contour>
      <point x="794" y="7"/>
      <point x="739" y="65"/>
      <point x="739" y="133" type="curve" smooth="yes"/>
      <point x="739" y="201"/>
      <point x="794" y="260"/>
      <point x="865" y="260" type="curve" smooth="yes"/>
      <point x="936" y="260"/>
      <point x="990" y="201"/>
      <point x="990" y="133" type="curve" smooth="yes"/>
      <point x="990" y="65"/>
      <point x="936" y="7"/>
      <point x="865" y="7" type="curve" smooth="yes"/>
    </contour>
    <contour>
      <point x="654" y="727" type="line"/>
      <point x="639" y="740" type="line"/>
      <point x="94" y="17" type="line"/>
      <point x="107" y="1" type="line"/>
    </contour>
    <contour>
      <point x="612" y="-13"/>
      <point x="679" y="53"/>
      <point x="679" y="133" type="curve" smooth="yes"/>
      <point x="679" y="212"/>
      <point x="612" y="279"/>
      <point x="533" y="279" type="curve" smooth="yes"/>
      <point x="453" y="279"/>
      <point x="387" y="212"/>
      <point x="387" y="133" type="curve" smooth="yes"/>
      <point x="387" y="55"/>
      <point x="453" y="-13"/>
      <point x="533" y="-13" type="curve" smooth="yes"/>
    </contour>
    <contour>
      <point x="462" y="7"/>
      <point x="407" y="65"/>
      <point x="407" y="133" type="curve" smooth="yes"/>
      <point x="407" y="201"/>
      <point x="462" y="260"/>
      <point x="533" y="260" type="curve" smooth="yes"/>
      <point x="604" y="260"/>
      <point x="658" y="201"/>
      <point x="658" y="133" type="curve" smooth="yes"/>
      <point x="658" y="65"/>
      <point x="604" y="7"/>
      <point x="533" y="7" type="curve" smooth="yes"/>
    </contour>
    <contour>
      <point x="301" y="437"/>
      <point x="368" y="503"/>
      <point x="368" y="583" type="curve" smooth="yes"/>
      <point x="368" y="662"/>
      <point x="301" y="729"/>
      <point x="222" y="729" type="curve" smooth="yes"/>
      <point x="142" y="729"/>
      <point x="76" y="662"/>
      <point x="76" y="583" type="curve" smooth="yes"/>
      <point x="76" y="505"/>
      <point x="142" y="437"/>
      <point x="222" y="437" type="curve" smooth="yes"/>
    </contour>
    <contour>
      <point x="151" y="457"/>
      <point x="96" y="515"/>
      <point x="96" y="583" type="curve" smooth="yes"/>
      <point x="96" y="651"/>
      <point x="151" y="710"/>
      <point x="222" y="710" type="curve" smooth="yes"/>
      <point x="293" y="710"/>
      <point x="347" y="651"/>
      <point x="347" y="583" type="curve" smooth="yes"/>
      <point x="347" y="515"/>
      <point x="293" y="457"/>
      <point x="222" y="457" type="curve" smooth="yes"/>
    </contour>
  </outline>
</glyph>
<glyph name="f_f" format="1">
  <advance width="534"/>
  <unicode hex="FB00"/>
  <outline>
    <contour>
      <point x="96" y="0" type="line"/>
      <point x="96" y="482" type="line"/>
      <point x="240" y="482" type="line"/>
      <point x="248" y="501" type="line"/>
      <point x="96" y="501" type="line"/>
      <point x="96" y="556" type="line" smooth="yes"/>
      <point x="96" y="640"/>
      <point x="151" y="691"/>
      <point x="224" y="691" type="curve" smooth="yes"/>
      <point x="266" y="691"/>
      <point x="303" y="674"/>
      <point x="335" y="638" type="curve"/>
      <point x="348" y="650" type="line"/>
      <point x="313" y="690"/>
      <point x="271" y="709"/>
      <point x="224" y="709" type="curve" smooth="yes"/>
      <point x="143" y="709"/>
      <point x="78" y="652"/>
      <point x="78" y="561" type="curve" smooth="yes"/>
      <point x="78" y="0" type="line"/>
    </contour>
    <contour>
      <point x="331" y="0" type="line"/>
      <point x="331" y="482" type="line"/>
      <point x="474" y="482" type="line"/>
      <point x="482" y="501" type="line"/>
      <point x="331" y="501" type="line"/>
      <point x="331" y="549" type="line" smooth="yes"/>
      <point x="331" y="643"/>
      <point x="386" y="692"/>
      <point x="464" y="692" type="curve" smooth="yes"/>
      <point x="475" y="692"/>
      <point x="484" y="691"/>
      <point x="492" y="690" type="curve"/>
      <point x="495" y="707" type="line"/>
      <point x="484" y="710"/>
      <point x="472" y="711"/>
      <point x="460" y="711" type="curve" smooth="yes"/>
      <point x="381" y="711"/>
      <point x="312" y="661"/>
      <point x="312" y="549" type="curve" smooth="yes"/>
      <point x="312" y="0" type="line"/>
    </contour>
    <contour>
      <point x="405" y="694" type="move" name="top"/>
    </contour>
    <contour>
      <point x="322" y="0" type="move" name="bottom"/>
    </contour>
  </outline>
</glyph>
<glyph name="f_i" format="1">
  <advance width="428"/>
  <unicode hex="FB01"/>
  <outline>
    <contour>
      <point x="96" y="0" type="line"/>
      <point x="96" y="482" type="line"/>
      <point x="240" y="482" type="line"/>
      <point x="248" y="501" type="line"/>
      <point x="96" y="501" type="line"/>
      <point x="96" y="556" type="line" smooth="yes"/>
      <point x="96" y="640"/>
      <point x="151" y="691"/>
      <point x="224" y="691" type="curve" smooth="yes"/>
      <point x="266" y="691"/>
      <point x="303" y="674"/>
      <point x="335" y="638" type="curve"/>
      <point x="348" y="650" type="line"/>
      <point x="313" y="690"/>
      <point x="271" y="709"/>
      <point x="224" y="709" type="curve" smooth="yes"/>
      <point x="143" y="709"/>
      <point x="78" y="652"/>
      <point x="78" y="561" type="curve" smooth="yes"/>
      <point x="78" y="0" type="line"/>
    </contour>
    <contour>
      <point x="346" y="0" type="line"/>
      <point x="346" y="501" type="line"/>
      <point x="328" y="501" type="line"/>
      <point x="328" y="0" type="line"/>
    </contour>
  </outline>
</glyph>
<glyph name="f_f_l" format="1">
  <advance width="654"/>
  <unicode hex="FB04"/>
  <outline>
    <contour>
      <point x="96" y="0" type="line"/>
      <point x="96" y="482" type="line"/>
      <point x="240" y="482" type="line"/>
      <point x="248" y="501" type="line"/>
      <point x="96" y="501" type="line"/>
      <point x="96" y="556" type="line" smooth="yes"/>
      <point x="96" y="640"/>
      <point x="151" y="691"/>
      <point x="224" y="691" type="curve" smooth="yes"/>
      <point x="266" y="691"/>
      <point x="303" y="674"/>
      <point x="335" y="638" type="curve"/>
      <point x="348" y="650" type="line"/>
      <point x="313" y="690"/>
      <point x="271" y="709"/>
      <point x="224" y="709" type="curve" smooth="yes"/>
      <point x="143" y="709"/>
      <point x="78" y="652"/>
      <point x="78" y="561" type="curve" smooth="yes"/>
      <point x="78" y="0" type="line"/>
    </contour>
    <contour>
      <point x="327" y="0" type="line"/>
      <point x="327" y="482" type="line"/>
      <point x="469" y="482" type="line"/>
      <point x="479" y="501" type="line"/>
      <point x="327" y="501" type="line"/>
      <point x="327" y="560" type="line" smooth="yes"/>
      <point x="327" y="632"/>
      <point x="379" y="688"/>
      <point x="453" y="688" type="curve" smooth="yes"/>
      <point x="490" y="688"/>
      <point x="525" y="674"/>
      <point x="555" y="647" type="curve"/>
      <point x="555" y="0" type="line"/>
      <point x="574" y="0" type="line"/>
      <point x="574" y="656" type="line"/>
      <point x="538" y="690"/>
      <point x="495" y="706"/>
      <point x="452" y="706" type="curve" smooth="yes"/>
      <point x="372" y="706"/>
      <point x="308" y="648"/>
      <point x="308" y="560" type="curve" smooth="yes"/>
      <point x="308" y="0" type="line"/>
    </contour>
  </outline>
</glyph>
<glyph name="dieresiscomb.alt" format="1">
  <advance width="249"/>
  <outline>
    <contour>
      <point x="201" y="574"/>
      <point x="209" y="580"/>
      <point x="209" y="589" type="curve" smooth="yes"/>
      <point x="209" y="598"/>
      <point x="201" y="604"/>
      <point x="194" y="604" type="curve" smooth="yes"/>
      <point x="187" y="604"/>
      <point x="179" y="598"/>
      <point x="179" y="589" type="curve" smooth="yes"/>
      <point x="179" y="580"/>
      <point x="187" y="574"/>
      <point x="194" y="574" type="curve" smooth="yes"/>
    </contour>
    <contour>
      <point x="62" y="573"/>
      <point x="70" y="579"/>
      <point x="70" y="588" type="curve" smooth="yes"/>
      <point x="70" y="597"/>
      <point x="62" y="603"/>
      <point x="55" y="603" type="curve" smooth="yes"/>
      <point x="48" y="603"/>
      <point x="40" y="597"/>
      <point x="40" y="588" type="curve" smooth="yes"/>
      <point x="40" y="579"/>
      <point x="48" y="573"/>
      <point x="55" y="573" type="curve" smooth="yes"/>
    </contour>
    <contour>
      <point x="125" y="604" type="move" name="top"/>
    </contour>
    <contour>
      <point x="125" y="501" type="move" name="_top"/>
    </contour>
  </outline>
</glyph>
<glyph name="sigma_chi" format="1">
  <advance width="961"/>
  <outline>
    <contour>
      <point x="917" y="-196" type="line"/>
      <point x="875" y="-186"/>
      <point x="843" y="-165"/>
      <point x="815" y="-107" type="curve" smooth="yes"/>
      <point x="689" y="149" type="line"/>
      <point x="872" y="501" type="line"/>
      <point x="852" y="501" type="line"/>
      <point x="679" y="168" type="line"/>
      <point x="595" y="339" type="line" smooth="yes"/>
      <point x="577" y="375"/>
      <point x="570" y="403"/>
      <point x="570" y="432" type="curve" smooth="yes"/>
      <point x="570" y="461"/>
      <point x="582" y="489"/>
      <point x="603" y="517" type="curve"/>
      <point x="592" y="527" type="line"/>
      <point x="565" y="497"/>
      <point x="552" y="466"/>
      <point x="552" y="433" type="curve" smooth="yes"/>
      <point x="552" y="400"/>
      <point x="563" y="363"/>
      <point x="580" y="329" type="curve" smooth="yes"/>
      <point x="669" y="148" type="line"/>
      <point x="492" y="-191" type="line"/>
      <point x="509" y="-199" type="line"/>
      <point x="679" y="131" type="line"/>
      <point x="796" y="-107" type="line" smooth="yes"/>
      <point x="829" y="-173"/>
      <point x="859" y="-199"/>
      <point x="911" y="-210" type="curve"/>
    </contour>
    <contour>
      <point x="159" y="0"/>
      <point x="97" y="55"/>
      <point x="97" y="174" type="curve" smooth="yes"/>
      <point x="97" y="346" type="line" smooth="yes"/>
      <point x="97" y="446"/>
      <point x="153" y="491"/>
      <point x="251" y="491" type="curve" smooth="yes"/>
      <point x="278" y="491"/>
      <point x="308" y="488"/>
      <point x="339" y="482" type="curve"/>
      <point x="403" y="447"/>
      <point x="434" y="388"/>
      <point x="434" y="310" type="curve" smooth="yes"/>
      <point x="434" y="174" type="line" smooth="yes"/>
      <point x="434" y="58"/>
      <point x="378" y="0"/>
      <point x="266" y="0" type="curve" smooth="yes"/>
    </contour>
    <contour>
      <point x="389" y="-19"/>
      <point x="451" y="46"/>
      <point x="451" y="175" type="curve" smooth="yes"/>
      <point x="451" y="310" type="line" smooth="yes"/>
      <point x="451" y="392"/>
      <point x="423" y="450"/>
      <point x="367" y="483" type="curve"/>
      <point x="401" y="483"/>
      <point x="447" y="504"/>
      <point x="472" y="533" type="curve"/>
      <point x="458" y="543" type="line"/>
      <point x="422" y="509"/>
      <point x="389" y="500"/>
      <point x="353" y="500" type="curve" smooth="yes"/>
      <point x="318" y="500"/>
      <point x="290" y="509"/>
      <point x="248" y="509" type="curve" smooth="yes"/>
      <point x="149" y="509"/>
      <point x="78" y="457"/>
      <point x="78" y="349" type="curve" smooth="yes"/>
      <point x="78" y="175" type="line" smooth="yes"/>
      <point x="78" y="54"/>
      <point x="139" y="-19"/>
      <point x="266" y="-19" type="curve" smooth="yes"/>
    </contour>
  </outline>
</glyph>
<glyph name="tonos.case" format="1">
  <advance width="167"/>
  <outline>
    <component base="tonos" yOffset="30"/>
    <contour>
      <point x="147" y="694" type="move" name="_topleft"/>
    </contour>
  </outline>
</glyph>
<glyph name="y.ss01" format="1">
  <advance width="519"/>
  <outline>
    <contour>
      <point x="177" y="-198" type="line"/>
      <point x="480" y="501" type="line"/>
      <point x="460" y="501" type="line"/>
      <point x="260" y="43" type="line"/>
      <point x="32" y="501" type="line"/>
      <point x="12" y="501" type="line"/>
      <point x="250" y="20" type="line"/>
      <point x="155" y="-198" type="line"/>
    </contour>
    <contour>
      <point x="244" y="501" type="move" name="top"/>
    </contour>
    <contour>
      <point x="394" y="0" type="move" name="bottom"/>
    </contour>
  </outline>
</glyph>
